<svg width="137" height="40" viewBox="0 0 137 40" fill="none" xmlns="http://www.w3.org/2000/svg">
<path d="M9.384 5.73602C14.6 5.73602 18.776 6.92002 21.912 9.28802C25.08 11.624 26.664 15.928 26.664 22.2C26.664 28.376 25.128 32.728 22.056 35.256C18.984 37.752 15 39 10.104 39H0.119995V5.73602H9.384ZM7.992 11.448V33.288H10.584C13.176 33.288 15.144 32.488 16.488 30.888C17.832 29.256 18.504 26.36 18.504 22.2C18.504 19.352 18.168 17.144 17.496 15.576C16.824 14.008 15.912 12.936 14.76 12.36C13.608 11.752 12.184 11.448 10.488 11.448H7.992Z" fill="#141414"/>
<path d="M51.0289 31.608C51.0289 32.568 51.1569 33.272 51.4129 33.72C51.7009 34.168 52.1489 34.504 52.7569 34.728L51.1729 39.672C49.6049 39.544 48.3249 39.208 47.3329 38.664C46.3409 38.088 45.5729 37.192 45.0289 35.976C43.3649 38.536 40.8049 39.816 37.3489 39.816C34.8209 39.816 32.8049 39.08 31.3009 37.608C29.7969 36.136 29.0449 34.216 29.0449 31.848C29.0449 29.064 30.0689 26.936 32.1169 25.464C34.1649 23.992 37.1249 23.256 40.9969 23.256H43.5889V22.152C43.5889 20.648 43.2689 19.624 42.6289 19.08C41.9889 18.504 40.8689 18.216 39.2689 18.216C38.4369 18.216 37.4289 18.344 36.2449 18.6C35.0609 18.824 33.8449 19.144 32.5969 19.56L30.8689 14.568C32.4689 13.96 34.1009 13.496 35.7649 13.176C37.4609 12.856 39.0289 12.696 40.4689 12.696C44.1169 12.696 46.7889 13.448 48.4849 14.952C50.1809 16.456 51.0289 18.712 51.0289 21.72V31.608ZM39.5569 34.392C41.2849 34.392 42.6289 33.576 43.5889 31.944V27.432H41.7169C39.9889 27.432 38.6929 27.736 37.8289 28.344C36.9969 28.952 36.5809 29.896 36.5809 31.176C36.5809 32.2 36.8369 33 37.3489 33.576C37.8929 34.12 38.6289 34.392 39.5569 34.392Z" fill="#141414"/>
<path d="M71.9977 12.696C74.2057 12.696 75.9337 13.368 77.1817 14.712C78.4297 16.056 79.0537 17.944 79.0537 20.376V39H71.4697V21.672C71.4697 20.392 71.2617 19.512 70.8457 19.032C70.4617 18.52 69.8697 18.264 69.0697 18.264C67.5337 18.264 66.0617 19.368 64.6537 21.576V39H57.0697V13.512H63.6937L64.2217 16.536C65.3097 15.256 66.4777 14.296 67.7257 13.656C69.0057 13.016 70.4297 12.696 71.9977 12.696Z" fill="#141414"/>
<path d="M92.3569 13.512V39H84.7729V13.512H92.3569ZM88.5169 0.0720215C89.8289 0.0720215 90.9009 0.488022 91.7329 1.32002C92.5969 2.12002 93.0289 3.14402 93.0289 4.39202C93.0289 5.64002 92.5969 6.68002 91.7329 7.51202C90.9009 8.31202 89.8289 8.71202 88.5169 8.71202C87.2049 8.71202 86.1329 8.31202 85.3009 7.51202C84.4689 6.68002 84.0529 5.64002 84.0529 4.39202C84.0529 3.14402 84.4689 2.12002 85.3009 1.32002C86.1329 0.488022 87.2049 0.0720215 88.5169 0.0720215Z" fill="#141414"/>
<path d="M120.544 25.752C120.544 26.808 120.496 27.72 120.4 28.488H104.608C104.864 30.632 105.472 32.136 106.432 33C107.392 33.864 108.72 34.296 110.416 34.296C111.44 34.296 112.432 34.12 113.392 33.768C114.352 33.384 115.392 32.808 116.512 32.04L119.632 36.264C116.656 38.632 113.344 39.816 109.696 39.816C105.568 39.816 102.4 38.6 100.192 36.168C97.9837 33.736 96.8797 30.472 96.8797 26.376C96.8797 23.784 97.3437 21.464 98.2717 19.416C99.1997 17.336 100.56 15.704 102.352 14.52C104.144 13.304 106.288 12.696 108.784 12.696C112.464 12.696 115.344 13.848 117.424 16.152C119.504 18.456 120.544 21.656 120.544 25.752ZM113.104 23.592C113.04 19.688 111.664 17.736 108.976 17.736C107.664 17.736 106.64 18.216 105.904 19.176C105.2 20.136 104.768 21.72 104.608 23.928H113.104V23.592Z" fill="#141414"/>
<path d="M131.572 39.816C129.364 39.816 127.636 39.192 126.388 37.944C125.172 36.664 124.564 34.856 124.564 32.52V3.38402L132.148 2.56802V32.232C132.148 33.288 132.58 33.816 133.444 33.816C133.892 33.816 134.308 33.736 134.692 33.576L136.18 38.952C134.804 39.528 133.268 39.816 131.572 39.816Z" fill="#141414"/>
</svg>
